<?xml version="1.0" encoding="UTF-8" standalone="no"?>
<!-- Created with Inkscape (http://www.inkscape.org/) -->

<svg
   version="1.1"
   id="svg1"
   width="101.28"
   height="14.72"
   viewBox="0 0 101.27999 14.72"
   >
  <defs
     id="defs1">
    <clipPath
       clipPathUnits="userSpaceOnUse"
       id="clipPath439">
      <path
         d="M 1372,0 H 3352 V 6212 H 1372 V 0"
         transform="translate(2.0833334e-5,2.0833333e-4)"
         id="path439" />
    </clipPath>
    <clipPath
       clipPathUnits="userSpaceOnUse"
       id="clipPath441">
      <path
         d="M 1372,0 H 3352 V 6212 H 1372 V 0"
         transform="rotate(90,4380,1533.5)"
         id="path441" />
    </clipPath>
    <clipPath
       clipPathUnits="userSpaceOnUse"
       id="clipPath443">
      <path
         d="M 1372,0 H 3352 V 6212 H 1372 V 0"
         transform="rotate(90,4089,1242.5)"
         id="path443" />
    </clipPath>
    <clipPath
       clipPathUnits="userSpaceOnUse"
       id="clipPath445">
      <path
         d="M 1372,0 H 3352 V 6212 H 1372 V 0"
         transform="translate(2.0833334e-5,2.0833333e-4)"
         id="path445" />
    </clipPath>
    <clipPath
       clipPathUnits="userSpaceOnUse"
       id="clipPath446">
      <path
         d="M 1372,0 H 3352 V 6212 H 1372 V 0"
         transform="matrix(-0.20271,-1,-1,0,6319.7912,2875)"
         id="path446" />
    </clipPath>
    <clipPath
       clipPathUnits="userSpaceOnUse"
       id="clipPath447">
      <path
         d="M 1372,0 H 3352 V 6212 H 1372 V 0"
         transform="matrix(0,-1,-1,0,5613,2876)"
         id="path447" />
    </clipPath>
    <clipPath
       clipPathUnits="userSpaceOnUse"
       id="clipPath449">
      <path
         d="M 1372,0 H 3352 V 6212 H 1372 V 0"
         transform="translate(2.0833334e-5,2.0833333e-4)"
         id="path449" />
    </clipPath>
  </defs>
  <g
     id="layer-oc1"
     transform="translate(-108.42667,-308.10667)">
    <g
       id="g453">
      <path
         id="path438"
         d="m 2865,5925 v -607 h -38 v 607 h 38"
         style="fill:none;stroke:#000000;stroke-width:6;stroke-linecap:round;stroke-linejoin:round;stroke-miterlimit:10;stroke-dasharray:none;stroke-opacity:1"
         transform="matrix(0,-0.16,-0.16,0,1058.6667,774.66667)"
         clip-path="url(#clipPath439)" />
      <path
         id="path440"
         d="M -12.43748,18.74991 C -18.72192,14.58122 -22.5,7.54136 -22.5,0 c 0,-7.54136 3.77808,-14.58122 10.06252,-18.74991"
         style="fill:none;stroke:#000000;stroke-width:6;stroke-linecap:round;stroke-linejoin:round;stroke-miterlimit:10;stroke-dasharray:none;stroke-opacity:1"
         transform="matrix(0.16,0,0,-0.16,112.50667,319.22667)"
         clip-path="url(#clipPath441)" />
      <path
         id="path442"
         d="M 12.43748,-18.74991 C 18.72192,-14.58122 22.5,-7.54136 22.5,0 c 0,7.54136 -3.77808,14.58122 -10.06252,18.74991"
         style="fill:none;stroke:#000000;stroke-width:6;stroke-linecap:round;stroke-linejoin:round;stroke-miterlimit:10;stroke-dasharray:none;stroke-opacity:1"
         transform="matrix(0.16,0,0,-0.16,205.62667,319.22667)"
         clip-path="url(#clipPath443)" />
      <path
         id="path444"
         d="M 2846,5925 V 5318"
         style="fill:none;stroke:#000000;stroke-width:6;stroke-linecap:round;stroke-linejoin:round;stroke-miterlimit:10;stroke-dasharray:none;stroke-opacity:1"
         transform="matrix(0,-0.16,-0.16,0,1058.6667,774.66667)"
         clip-path="url(#clipPath445)" />
      <text
         id="text445"
         xml:space="preserve"
         transform="matrix(0.16,0,-0.0324336,0.16,140.74667,314.66667)"
         clip-path="url(#clipPath446)"><tspan
           id="tspan445"
           style="font-style:italic;font-variant:normal;font-weight:normal;font-size:48.514px;font-family:'GOST Common';writing-mode:lr-tb;fill:#000000;fill-opacity:1;fill-rule:nonzero;stroke:none"
           x="0"
           y="0">36W</tspan></text>
      <text
         id="text446"
         xml:space="preserve"
         transform="matrix(0.16,0,0,0.16,160.58667,314.50667)"
         clip-path="url(#clipPath447)"><tspan
           id="tspan446"
           style="font-style:italic;font-variant:normal;font-weight:normal;font-size:49.5px;font-family:'GOST Common';writing-mode:lr-tb;fill:#000000;fill-opacity:1;fill-rule:nonzero;stroke:none"
           x="0"
           y="0">LED</tspan></text>
      <path
         id="path448"
         d="m 2913,5612 v -91 h -39 v 91 h 39"
         style="fill:none;stroke:#000000;stroke-width:6;stroke-linecap:round;stroke-linejoin:round;stroke-miterlimit:10;stroke-dasharray:none;stroke-opacity:1"
         transform="matrix(0,-0.16,-0.16,0,1058.6667,774.66667)"
         clip-path="url(#clipPath449)" />
    </g>
  </g>
</svg>
