<?xml version="1.0" encoding="UTF-8" standalone="no"?>
<!-- Created with Inkscape (http://www.inkscape.org/) -->

<svg
   version="1.1"
   id="svg1"
   width="13.12003"
   height="11.6"
   viewBox="0 0 13.12003 11.6"
   >
  <defs
     id="defs1">
    <clipPath
       clipPathUnits="userSpaceOnUse"
       id="clipPath343">
      <path
         d="M 1372,0 H 3352 V 6212 H 1372 V 0"
         transform="translate(2.0833334e-5,2.0833333e-4)"
         id="path343" />
    </clipPath>
    <clipPath
       clipPathUnits="userSpaceOnUse"
       id="clipPath345">
      <path
         d="M 1372,0 H 3352 V 6212 H 1372 V 0"
         transform="translate(2.0833334e-5,2.0833333e-4)"
         id="path345" />
    </clipPath>
    <clipPath
       clipPathUnits="userSpaceOnUse"
       id="clipPath347">
      <path
         d="M 1372,0 H 3352 V 6212 H 1372 V 0"
         transform="translate(2.0833334e-5,2.0833333e-4)"
         id="path347" />
    </clipPath>
    <clipPath
       clipPathUnits="userSpaceOnUse"
       id="clipPath349">
      <path
         d="M 1372,0 H 3352 V 6212 H 1372 V 0"
         transform="translate(2.0833334e-5,2.0833333e-4)"
         id="path349" />
    </clipPath>
    <clipPath
       clipPathUnits="userSpaceOnUse"
       id="clipPath351">
      <path
         d="M 1372,0 H 3352 V 6212 H 1372 V 0"
         transform="translate(2.0833334e-5,2.0833333e-4)"
         id="path351" />
    </clipPath>
    <clipPath
       clipPathUnits="userSpaceOnUse"
       id="clipPath353">
      <path
         d="M 1372,0 H 3352 V 6212 H 1372 V 0"
         transform="translate(2.0833334e-5,2.0833333e-4)"
         id="path353" />
    </clipPath>
    <clipPath
       clipPathUnits="userSpaceOnUse"
       id="clipPath355">
      <path
         d="M 1372,0 H 3352 V 6212 H 1372 V 0"
         transform="translate(2.0833334e-5,2.0833333e-4)"
         id="path355" />
    </clipPath>
    <clipPath
       clipPathUnits="userSpaceOnUse"
       id="clipPath357">
      <path
         d="M 1372,0 H 3352 V 6212 H 1372 V 0"
         transform="translate(2.0833334e-5,2.0833333e-4)"
         id="path357" />
    </clipPath>
    <clipPath
       clipPathUnits="userSpaceOnUse"
       id="clipPath360">
      <path
         d="M 1372,0 H 3352 V 6212 H 1372 V 0"
         transform="rotate(90,4179,1570.5)"
         id="path360" />
    </clipPath>
    <clipPath
       clipPathUnits="userSpaceOnUse"
       id="clipPath364">
      <path
         d="M 1372,0 H 3352 V 6212 H 1372 V 0"
         transform="rotate(90,4179,1570.5)"
         id="path364" />
    </clipPath>
  </defs>
  <g
     id="layer-oc2"
     transform="translate(-132.26667,-356.82667)">
    <g
       id="g451">
      <path
         id="path342"
         d="m 2608,5736 v 25 l -3,-25 z m 0,25 -3,-25 v 25 z"
         style="fill:#000000;fill-opacity:1;fill-rule:nonzero;stroke:#000000;stroke-width:1;stroke-linecap:round;stroke-linejoin:miter;stroke-miterlimit:10;stroke-dasharray:none;stroke-opacity:1"
         transform="matrix(0,-0.16,-0.16,0,1058.6667,774.66667)"
         clip-path="url(#clipPath343)" />
      <path
         id="path344"
         d="m 2605,5736 v 25 l -2,-24 z m 0,25 -2,-24 v 23 z"
         style="fill:#000000;fill-opacity:1;fill-rule:nonzero;stroke:#000000;stroke-width:1;stroke-linecap:round;stroke-linejoin:miter;stroke-miterlimit:10;stroke-dasharray:none;stroke-opacity:1"
         transform="matrix(0,-0.16,-0.16,0,1058.6667,774.66667)"
         clip-path="url(#clipPath345)" />
      <path
         id="path346"
         d="m 2603,5737 v 23 l -2,-22 z m 0,23 -2,-22 v 21 z"
         style="fill:#000000;fill-opacity:1;fill-rule:nonzero;stroke:#000000;stroke-width:1;stroke-linecap:round;stroke-linejoin:miter;stroke-miterlimit:10;stroke-dasharray:none;stroke-opacity:1"
         transform="matrix(0,-0.16,-0.16,0,1058.6667,774.66667)"
         clip-path="url(#clipPath347)" />
      <path
         id="path348"
         d="m 2601,5738 v 21 l -2,-20 z m 0,21 -2,-20 v 19 z"
         style="fill:#000000;fill-opacity:1;fill-rule:nonzero;stroke:#000000;stroke-width:1;stroke-linecap:round;stroke-linejoin:miter;stroke-miterlimit:10;stroke-dasharray:none;stroke-opacity:1"
         transform="matrix(0,-0.16,-0.16,0,1058.6667,774.66667)"
         clip-path="url(#clipPath349)" />
      <path
         id="path350"
         d="m 2599,5739 v 19 l -2,-17 z m 0,19 -2,-17 v 15 z"
         style="fill:#000000;fill-opacity:1;fill-rule:nonzero;stroke:#000000;stroke-width:1;stroke-linecap:round;stroke-linejoin:miter;stroke-miterlimit:10;stroke-dasharray:none;stroke-opacity:1"
         transform="matrix(0,-0.16,-0.16,0,1058.6667,774.66667)"
         clip-path="url(#clipPath351)" />
      <path
         id="path352"
         d="m 2597,5741 v 15 l -1,-13 z m 0,15 -1,-13 v 11 z"
         style="fill:#000000;fill-opacity:1;fill-rule:nonzero;stroke:#000000;stroke-width:1;stroke-linecap:round;stroke-linejoin:miter;stroke-miterlimit:10;stroke-dasharray:none;stroke-opacity:1"
         transform="matrix(0,-0.16,-0.16,0,1058.6667,774.66667)"
         clip-path="url(#clipPath353)" />
      <path
         id="path354"
         d="m 2596,5743 v 11 l -1,-9 z m 0,11 -1,-9 v 7 z"
         style="fill:#000000;fill-opacity:1;fill-rule:nonzero;stroke:#000000;stroke-width:1;stroke-linecap:round;stroke-linejoin:miter;stroke-miterlimit:10;stroke-dasharray:none;stroke-opacity:1"
         transform="matrix(0,-0.16,-0.16,0,1058.6667,774.66667)"
         clip-path="url(#clipPath355)" />
      <path
         id="path356"
         d="m 2595,5745 v 7 -5 z m 0,7 v -5 3 z"
         style="fill:#000000;fill-opacity:1;fill-rule:nonzero;stroke:#000000;stroke-width:1;stroke-linecap:round;stroke-linejoin:miter;stroke-miterlimit:10;stroke-dasharray:none;stroke-opacity:1"
         transform="matrix(0,-0.16,-0.16,0,1058.6667,774.66667)"
         clip-path="url(#clipPath357)" />
      <path
         id="path358"
         d="m 2608,5786 v -75"
         style="fill:none;stroke:#000000;stroke-width:6;stroke-linecap:round;stroke-linejoin:round;stroke-miterlimit:10;stroke-dasharray:none;stroke-opacity:1"
         transform="matrix(0,-0.16,-0.16,0,1058.6667,774.66667)" />
      <path
         id="path359"
         d="m -37.5,0 c 0,-20.71068 16.78932,-37.5 37.5,-37.5 20.71068,0 37.5,16.78932 37.5,37.5"
         style="fill:none;stroke:#000000;stroke-width:6;stroke-linecap:round;stroke-linejoin:round;stroke-miterlimit:10;stroke-dasharray:none;stroke-opacity:1"
         transform="matrix(0.16,0,0,-0.16,138.74667,357.30667)"
         clip-path="url(#clipPath360)" />
      <path
         id="path361"
         d="m 2595,5749 h -34 v -21"
         style="fill:none;stroke:#000000;stroke-width:6;stroke-linecap:round;stroke-linejoin:round;stroke-miterlimit:10;stroke-dasharray:none;stroke-opacity:1"
         transform="matrix(0,-0.16,-0.16,0,1058.6667,774.66667)" />
      <path
         id="path362"
         d="m 2561,5749 v 20"
         style="fill:none;stroke:#000000;stroke-width:6;stroke-linecap:round;stroke-linejoin:round;stroke-miterlimit:10;stroke-dasharray:none;stroke-opacity:1"
         transform="matrix(0,-0.16,-0.16,0,1058.6667,774.66667)" />
      <path
         id="path363"
         d="m -12.5,0 c 0,-6.90356 5.59644,-12.5 12.5,-12.5 6.90356,0 12.5,5.59644 12.5,12.5"
         style="fill:none;stroke:#000000;stroke-width:6;stroke-linecap:round;stroke-linejoin:round;stroke-miterlimit:10;stroke-dasharray:none;stroke-opacity:1"
         transform="matrix(0.16,0,0,-0.16,138.74667,357.30667)"
         clip-path="url(#clipPath364)" />
      <path
         id="path365"
         d="m 2561,5759 h -19"
         style="fill:none;stroke:#000000;stroke-width:6;stroke-linecap:round;stroke-linejoin:round;stroke-miterlimit:10;stroke-dasharray:none;stroke-opacity:1"
         transform="matrix(0,-0.16,-0.16,0,1058.6667,774.66667)" />
      <path
         id="path366"
         d="m 2561,5738 h -19"
         style="fill:none;stroke:#000000;stroke-width:6;stroke-linecap:round;stroke-linejoin:round;stroke-miterlimit:10;stroke-dasharray:none;stroke-opacity:1"
         transform="matrix(0,-0.16,-0.16,0,1058.6667,774.66667)" />
    </g>
  </g>
</svg>
