<?xml version="1.0" encoding="UTF-8" standalone="no"?>
<!-- Created with Inkscape (http://www.inkscape.org/) -->

<svg
   version="1.1"
   id="svg1"
   width="13.12003"
   height="11.6"
   viewBox="0 0 13.12003 11.6"
   >
  <defs
     id="defs1">
    <clipPath
       clipPathUnits="userSpaceOnUse"
       id="clipPath320">
      <path
         d="M 1372,0 H 3352 V 6212 H 1372 V 0"
         transform="translate(2.0833334e-5,2.0833333e-4)"
         id="path320" />
    </clipPath>
    <clipPath
       clipPathUnits="userSpaceOnUse"
       id="clipPath322">
      <path
         d="M 1372,0 H 3352 V 6212 H 1372 V 0"
         transform="translate(2.0833334e-5,2.0833333e-4)"
         id="path322" />
    </clipPath>
    <clipPath
       clipPathUnits="userSpaceOnUse"
       id="clipPath324">
      <path
         d="M 1372,0 H 3352 V 6212 H 1372 V 0"
         transform="translate(2.0833334e-5,2.0833333e-4)"
         id="path324" />
    </clipPath>
    <clipPath
       clipPathUnits="userSpaceOnUse"
       id="clipPath326">
      <path
         d="M 1372,0 H 3352 V 6212 H 1372 V 0"
         transform="translate(2.0833334e-5,2.0833333e-4)"
         id="path326" />
    </clipPath>
    <clipPath
       clipPathUnits="userSpaceOnUse"
       id="clipPath328">
      <path
         d="M 1372,0 H 3352 V 6212 H 1372 V 0"
         transform="translate(2.0833334e-5,2.0833333e-4)"
         id="path328" />
    </clipPath>
    <clipPath
       clipPathUnits="userSpaceOnUse"
       id="clipPath330">
      <path
         d="M 1372,0 H 3352 V 6212 H 1372 V 0"
         transform="translate(2.0833334e-5,2.0833333e-4)"
         id="path330" />
    </clipPath>
    <clipPath
       clipPathUnits="userSpaceOnUse"
       id="clipPath332">
      <path
         d="M 1372,0 H 3352 V 6212 H 1372 V 0"
         transform="translate(2.0833334e-5,2.0833333e-4)"
         id="path332" />
    </clipPath>
    <clipPath
       clipPathUnits="userSpaceOnUse"
       id="clipPath334">
      <path
         d="M 1372,0 H 3352 V 6212 H 1372 V 0"
         transform="translate(2.0833334e-5,2.0833333e-4)"
         id="path334" />
    </clipPath>
    <clipPath
       clipPathUnits="userSpaceOnUse"
       id="clipPath337">
      <path
         d="M 1372,0 H 3352 V 6212 H 1372 V 0"
         transform="rotate(90,4239,1636.5)"
         id="path337" />
    </clipPath>
    <clipPath
       clipPathUnits="userSpaceOnUse"
       id="clipPath341">
      <path
         d="M 1372,0 H 3352 V 6212 H 1372 V 0"
         transform="rotate(90,4239,1636.5)"
         id="path341" />
    </clipPath>
  </defs>
  <g
     id="layer-oc2"
     transform="translate(-112.10667,-357.78667)">
    <g
       id="g452">
      <path
         id="path319"
         d="m 2602,5862 v 26 l -2,-25 z m 0,26 -2,-25 v 24 z"
         style="fill:#000000;fill-opacity:1;fill-rule:nonzero;stroke:#000000;stroke-width:1;stroke-linecap:round;stroke-linejoin:miter;stroke-miterlimit:10;stroke-dasharray:none;stroke-opacity:1"
         transform="matrix(0,-0.16,-0.16,0,1058.6667,774.66667)"
         clip-path="url(#clipPath320)" />
      <path
         id="path321"
         d="m 2600,5863 v 24 l -2,-24 z m 0,24 -2,-24 v 24 z"
         style="fill:#000000;fill-opacity:1;fill-rule:nonzero;stroke:#000000;stroke-width:1;stroke-linecap:round;stroke-linejoin:miter;stroke-miterlimit:10;stroke-dasharray:none;stroke-opacity:1"
         transform="matrix(0,-0.16,-0.16,0,1058.6667,774.66667)"
         clip-path="url(#clipPath322)" />
      <path
         id="path323"
         d="m 2598,5863 v 24 l -2,-23 z m 0,24 -2,-23 v 22 z"
         style="fill:#000000;fill-opacity:1;fill-rule:nonzero;stroke:#000000;stroke-width:1;stroke-linecap:round;stroke-linejoin:miter;stroke-miterlimit:10;stroke-dasharray:none;stroke-opacity:1"
         transform="matrix(0,-0.16,-0.16,0,1058.6667,774.66667)"
         clip-path="url(#clipPath324)" />
      <path
         id="path325"
         d="m 2596,5864 v 22 l -2,-20 z m 0,22 -2,-20 v 18 z"
         style="fill:#000000;fill-opacity:1;fill-rule:nonzero;stroke:#000000;stroke-width:1;stroke-linecap:round;stroke-linejoin:miter;stroke-miterlimit:10;stroke-dasharray:none;stroke-opacity:1"
         transform="matrix(0,-0.16,-0.16,0,1058.6667,774.66667)"
         clip-path="url(#clipPath326)" />
      <path
         id="path327"
         d="m 2594,5866 v 18 l -2,-17 z m 0,18 -2,-17 v 16 z"
         style="fill:#000000;fill-opacity:1;fill-rule:nonzero;stroke:#000000;stroke-width:1;stroke-linecap:round;stroke-linejoin:miter;stroke-miterlimit:10;stroke-dasharray:none;stroke-opacity:1"
         transform="matrix(0,-0.16,-0.16,0,1058.6667,774.66667)"
         clip-path="url(#clipPath328)" />
      <path
         id="path329"
         d="m 2592,5867 v 16 l -1,-14 z m 0,16 -1,-14 v 12 z"
         style="fill:#000000;fill-opacity:1;fill-rule:nonzero;stroke:#000000;stroke-width:1;stroke-linecap:round;stroke-linejoin:miter;stroke-miterlimit:10;stroke-dasharray:none;stroke-opacity:1"
         transform="matrix(0,-0.16,-0.16,0,1058.6667,774.66667)"
         clip-path="url(#clipPath330)" />
      <path
         id="path331"
         d="m 2591,5869 v 12 l -1,-9 z m 0,12 -1,-9 v 7 z"
         style="fill:#000000;fill-opacity:1;fill-rule:nonzero;stroke:#000000;stroke-width:1;stroke-linecap:round;stroke-linejoin:miter;stroke-miterlimit:10;stroke-dasharray:none;stroke-opacity:1"
         transform="matrix(0,-0.16,-0.16,0,1058.6667,774.66667)"
         clip-path="url(#clipPath332)" />
      <path
         id="path333"
         d="m 2590,5872 v 7 -5 z m 0,7 v -5 2 z"
         style="fill:#000000;fill-opacity:1;fill-rule:nonzero;stroke:#000000;stroke-width:1;stroke-linecap:round;stroke-linejoin:miter;stroke-miterlimit:10;stroke-dasharray:none;stroke-opacity:1"
         transform="matrix(0,-0.16,-0.16,0,1058.6667,774.66667)"
         clip-path="url(#clipPath334)" />
      <path
         id="path335"
         d="m 2602,5913 v -76"
         style="fill:none;stroke:#000000;stroke-width:6;stroke-linecap:round;stroke-linejoin:round;stroke-miterlimit:10;stroke-dasharray:none;stroke-opacity:1"
         transform="matrix(0,-0.16,-0.16,0,1058.6667,774.66667)" />
      <path
         id="path336"
         d="m -37.5,0 c 0,-20.71068 16.78932,-37.5 37.5,-37.5 20.71068,0 37.5,16.78932 37.5,37.5"
         style="fill:none;stroke:#000000;stroke-width:6;stroke-linecap:round;stroke-linejoin:round;stroke-miterlimit:10;stroke-dasharray:none;stroke-opacity:1"
         transform="matrix(0.16,0,0,-0.16,118.58667,358.26667)"
         clip-path="url(#clipPath337)" />
      <path
         id="path338"
         d="m 2590,5875 h -54"
         style="fill:none;stroke:#000000;stroke-width:6;stroke-linecap:round;stroke-linejoin:round;stroke-miterlimit:10;stroke-dasharray:none;stroke-opacity:1"
         transform="matrix(0,-0.16,-0.16,0,1058.6667,774.66667)" />
      <path
         id="path339"
         d="m 2555,5895 v -20 -20"
         style="fill:none;stroke:#000000;stroke-width:6;stroke-linecap:round;stroke-linejoin:round;stroke-miterlimit:10;stroke-dasharray:none;stroke-opacity:1"
         transform="matrix(0,-0.16,-0.16,0,1058.6667,774.66667)" />
      <path
         id="path340"
         d="m -12.5,0 c 0,-6.90356 5.59644,-12.5 12.5,-12.5 6.90356,0 12.5,5.59644 12.5,12.5"
         style="fill:none;stroke:#000000;stroke-width:6;stroke-linecap:round;stroke-linejoin:round;stroke-miterlimit:10;stroke-dasharray:none;stroke-opacity:1"
         transform="matrix(0.16,0,0,-0.16,118.58667,358.26667)"
         clip-path="url(#clipPath341)" />
    </g>
  </g>
</svg>
