<?xml version="1.0" encoding="UTF-8" standalone="no"?>
<!-- Created with Inkscape (http://www.inkscape.org/) -->

<svg
   version="1.1"
   id="svg1"
   width="22.08"
   height="14.4"
   viewBox="0 0 22.079999 14.4"
   >
  <defs
     id="defs1">
    <clipPath
       clipPathUnits="userSpaceOnUse"
       id="clipPath403">
      <path
         d="M 1372,0 H 3352 V 6212 H 1372 V 0"
         transform="translate(2.0833334e-5,2.0833333e-4)"
         id="path403" />
    </clipPath>
    <clipPath
       clipPathUnits="userSpaceOnUse"
       id="clipPath405">
      <path
         d="M 1372,0 H 3352 V 6212 H 1372 V 0"
         transform="translate(2.0833334e-5,2.0833333e-4)"
         id="path405" />
    </clipPath>
    <clipPath
       clipPathUnits="userSpaceOnUse"
       id="clipPath407">
      <path
         d="M 1372,0 H 3352 V 6212 H 1372 V 0"
         transform="translate(2.0833334e-5,2.0833333e-4)"
         id="path407" />
    </clipPath>
    <clipPath
       clipPathUnits="userSpaceOnUse"
       id="clipPath409">
      <path
         d="M 1372,0 H 3352 V 6212 H 1372 V 0"
         transform="translate(2.0833334e-5,2.0833333e-4)"
         id="path409" />
    </clipPath>
    <clipPath
       clipPathUnits="userSpaceOnUse"
       id="clipPath411">
      <path
         d="M 1372,0 H 3352 V 6212 H 1372 V 0"
         transform="translate(2.0833334e-5,2.0833333e-4)"
         id="path411" />
    </clipPath>
    <clipPath
       clipPathUnits="userSpaceOnUse"
       id="clipPath413">
      <path
         d="M 1372,0 H 3352 V 6212 H 1372 V 0"
         transform="translate(2.0833334e-5,2.0833333e-4)"
         id="path413" />
    </clipPath>
    <clipPath
       clipPathUnits="userSpaceOnUse"
       id="clipPath415">
      <path
         d="M 1372,0 H 3352 V 6212 H 1372 V 0"
         transform="translate(2.0833334e-5,2.0833333e-4)"
         id="path415" />
    </clipPath>
    <clipPath
       clipPathUnits="userSpaceOnUse"
       id="clipPath417">
      <path
         d="M 1372,0 H 3352 V 6212 H 1372 V 0"
         transform="translate(2.0833334e-5,2.0833333e-4)"
         id="path417" />
    </clipPath>
    <clipPath
       clipPathUnits="userSpaceOnUse"
       id="clipPath419">
      <path
         d="M 1372,0 H 3352 V 6212 H 1372 V 0"
         transform="translate(2.0833334e-5,2.0833333e-4)"
         id="path419" />
    </clipPath>
    <clipPath
       clipPathUnits="userSpaceOnUse"
       id="clipPath421">
      <path
         d="M 1372,0 H 3352 V 6212 H 1372 V 0"
         transform="translate(2.0833334e-5,2.0833333e-4)"
         id="path421" />
    </clipPath>
    <clipPath
       clipPathUnits="userSpaceOnUse"
       id="clipPath423">
      <path
         d="M 1372,0 H 3352 V 6212 H 1372 V 0"
         transform="translate(2.0833334e-5,2.0833333e-4)"
         id="path423" />
    </clipPath>
    <clipPath
       clipPathUnits="userSpaceOnUse"
       id="clipPath425">
      <path
         d="M 1372,0 H 3352 V 6212 H 1372 V 0"
         transform="translate(2.0833334e-5,2.0833333e-4)"
         id="path425" />
    </clipPath>
    <clipPath
       clipPathUnits="userSpaceOnUse"
       id="clipPath427">
      <path
         d="M 1372,0 H 3352 V 6212 H 1372 V 0"
         transform="translate(2.0833334e-5,2.0833333e-4)"
         id="path427" />
    </clipPath>
    <clipPath
       clipPathUnits="userSpaceOnUse"
       id="clipPath429">
      <path
         d="M 1372,0 H 3352 V 6212 H 1372 V 0"
         transform="translate(2.0833334e-5,2.0833333e-4)"
         id="path429" />
    </clipPath>
    <clipPath
       clipPathUnits="userSpaceOnUse"
       id="clipPath431">
      <path
         d="M 1372,0 H 3352 V 6212 H 1372 V 0"
         transform="translate(2.0833334e-5,2.0833333e-4)"
         id="path431" />
    </clipPath>
    <clipPath
       clipPathUnits="userSpaceOnUse"
       id="clipPath433">
      <path
         d="M 1372,0 H 3352 V 6212 H 1372 V 0"
         transform="translate(2.0833334e-5,2.0833333e-4)"
         id="path433" />
    </clipPath>
    <clipPath
       clipPathUnits="userSpaceOnUse"
       id="clipPath435">
      <path
         d="M 1372,0 H 3352 V 6212 H 1372 V 0"
         transform="rotate(90,4032,1437.5)"
         id="path435" />
    </clipPath>
  </defs>
  <g
     id="layer-oc2"
     transform="translate(-172.5867,-355.30667)">
    <g
       id="g449">
      <path
         id="path402"
         d="m 2617,5467 v 4 -8 z m 0,4 v -8 13 z"
         style="fill:#000000;fill-opacity:1;fill-rule:nonzero;stroke:#000000;stroke-width:1;stroke-linecap:round;stroke-linejoin:miter;stroke-miterlimit:10;stroke-dasharray:none;stroke-opacity:1"
         transform="matrix(0,-0.16,-0.16,0,1058.6667,774.66667)"
         clip-path="url(#clipPath403)" />
      <path
         id="path404"
         d="m 2617,5463 v 13 l -2,-18 z m 0,13 -2,-18 v 22 z"
         style="fill:#000000;fill-opacity:1;fill-rule:nonzero;stroke:#000000;stroke-width:1;stroke-linecap:round;stroke-linejoin:miter;stroke-miterlimit:10;stroke-dasharray:none;stroke-opacity:1"
         transform="matrix(0,-0.16,-0.16,0,1058.6667,774.66667)"
         clip-path="url(#clipPath405)" />
      <path
         id="path406"
         d="m 2615,5458 v 22 l -2,-25 z m 0,22 -2,-25 v 28 z"
         style="fill:#000000;fill-opacity:1;fill-rule:nonzero;stroke:#000000;stroke-width:1;stroke-linecap:round;stroke-linejoin:miter;stroke-miterlimit:10;stroke-dasharray:none;stroke-opacity:1"
         transform="matrix(0,-0.16,-0.16,0,1058.6667,774.66667)"
         clip-path="url(#clipPath407)" />
      <path
         id="path408"
         d="m 2613,5455 v 28 l -3,-31 z m 0,28 -3,-31 v 35 z"
         style="fill:#000000;fill-opacity:1;fill-rule:nonzero;stroke:#000000;stroke-width:1;stroke-linecap:round;stroke-linejoin:miter;stroke-miterlimit:10;stroke-dasharray:none;stroke-opacity:1"
         transform="matrix(0,-0.16,-0.16,0,1058.6667,774.66667)"
         clip-path="url(#clipPath409)" />
      <path
         id="path410"
         d="m 2610,5452 v 35 l -4,-38 z m 0,35 -4,-38 v 40 z"
         style="fill:#000000;fill-opacity:1;fill-rule:nonzero;stroke:#000000;stroke-width:1;stroke-linecap:round;stroke-linejoin:miter;stroke-miterlimit:10;stroke-dasharray:none;stroke-opacity:1"
         transform="matrix(0,-0.16,-0.16,0,1058.6667,774.66667)"
         clip-path="url(#clipPath411)" />
      <path
         id="path412"
         d="m 2606,5449 v 40 l -4,-42 z m 0,40 -4,-42 v 44 z"
         style="fill:#000000;fill-opacity:1;fill-rule:nonzero;stroke:#000000;stroke-width:1;stroke-linecap:round;stroke-linejoin:miter;stroke-miterlimit:10;stroke-dasharray:none;stroke-opacity:1"
         transform="matrix(0,-0.16,-0.16,0,1058.6667,774.66667)"
         clip-path="url(#clipPath413)" />
      <path
         id="path414"
         d="m 2602,5447 v 44 l -4,-45 z m 0,44 -4,-45 v 46 z"
         style="fill:#000000;fill-opacity:1;fill-rule:nonzero;stroke:#000000;stroke-width:1;stroke-linecap:round;stroke-linejoin:miter;stroke-miterlimit:10;stroke-dasharray:none;stroke-opacity:1"
         transform="matrix(0,-0.16,-0.16,0,1058.6667,774.66667)"
         clip-path="url(#clipPath415)" />
      <path
         id="path416"
         d="m 2598,5446 v 46 l -4,-47 z m 0,46 -4,-47 v 48 z"
         style="fill:#000000;fill-opacity:1;fill-rule:nonzero;stroke:#000000;stroke-width:1;stroke-linecap:round;stroke-linejoin:miter;stroke-miterlimit:10;stroke-dasharray:none;stroke-opacity:1"
         transform="matrix(0,-0.16,-0.16,0,1058.6667,774.66667)"
         clip-path="url(#clipPath417)" />
      <path
         id="path418"
         d="m 2594,5445 v 48 l -5,-47 z m 0,48 -5,-47 v 46 z"
         style="fill:#000000;fill-opacity:1;fill-rule:nonzero;stroke:#000000;stroke-width:1;stroke-linecap:round;stroke-linejoin:miter;stroke-miterlimit:10;stroke-dasharray:none;stroke-opacity:1"
         transform="matrix(0,-0.16,-0.16,0,1058.6667,774.66667)"
         clip-path="url(#clipPath419)" />
      <path
         id="path420"
         d="m 2589,5446 v 46 l -4,-45 z m 0,46 -4,-45 v 44 z"
         style="fill:#000000;fill-opacity:1;fill-rule:nonzero;stroke:#000000;stroke-width:1;stroke-linecap:round;stroke-linejoin:miter;stroke-miterlimit:10;stroke-dasharray:none;stroke-opacity:1"
         transform="matrix(0,-0.16,-0.16,0,1058.6667,774.66667)"
         clip-path="url(#clipPath421)" />
      <path
         id="path422"
         d="m 2585,5447 v 44 l -4,-42 z m 0,44 -4,-42 v 40 z"
         style="fill:#000000;fill-opacity:1;fill-rule:nonzero;stroke:#000000;stroke-width:1;stroke-linecap:round;stroke-linejoin:miter;stroke-miterlimit:10;stroke-dasharray:none;stroke-opacity:1"
         transform="matrix(0,-0.16,-0.16,0,1058.6667,774.66667)"
         clip-path="url(#clipPath423)" />
      <path
         id="path424"
         d="m 2581,5449 v 40 l -3,-37 z m 0,40 -3,-37 v 35 z"
         style="fill:#000000;fill-opacity:1;fill-rule:nonzero;stroke:#000000;stroke-width:1;stroke-linecap:round;stroke-linejoin:miter;stroke-miterlimit:10;stroke-dasharray:none;stroke-opacity:1"
         transform="matrix(0,-0.16,-0.16,0,1058.6667,774.66667)"
         clip-path="url(#clipPath425)" />
      <path
         id="path426"
         d="m 2578,5452 v 35 l -3,-32 z m 0,35 -3,-32 v 28 z"
         style="fill:#000000;fill-opacity:1;fill-rule:nonzero;stroke:#000000;stroke-width:1;stroke-linecap:round;stroke-linejoin:miter;stroke-miterlimit:10;stroke-dasharray:none;stroke-opacity:1"
         transform="matrix(0,-0.16,-0.16,0,1058.6667,774.66667)"
         clip-path="url(#clipPath427)" />
      <path
         id="path428"
         d="m 2575,5455 v 28 l -2,-25 z m 0,28 -2,-25 v 22 z"
         style="fill:#000000;fill-opacity:1;fill-rule:nonzero;stroke:#000000;stroke-width:1;stroke-linecap:round;stroke-linejoin:miter;stroke-miterlimit:10;stroke-dasharray:none;stroke-opacity:1"
         transform="matrix(0,-0.16,-0.16,0,1058.6667,774.66667)"
         clip-path="url(#clipPath429)" />
      <path
         id="path430"
         d="m 2573,5458 v 22 l -2,-17 z m 0,22 -2,-17 v 13 z"
         style="fill:#000000;fill-opacity:1;fill-rule:nonzero;stroke:#000000;stroke-width:1;stroke-linecap:round;stroke-linejoin:miter;stroke-miterlimit:10;stroke-dasharray:none;stroke-opacity:1"
         transform="matrix(0,-0.16,-0.16,0,1058.6667,774.66667)"
         clip-path="url(#clipPath431)" />
      <path
         id="path432"
         d="m 2571,5463 v 13 l -1,-9 z m 0,13 -1,-9 v 4 z"
         style="fill:#000000;fill-opacity:1;fill-rule:nonzero;stroke:#000000;stroke-width:1;stroke-linecap:round;stroke-linejoin:miter;stroke-miterlimit:10;stroke-dasharray:none;stroke-opacity:1"
         transform="matrix(0,-0.16,-0.16,0,1058.6667,774.66667)"
         clip-path="url(#clipPath433)" />
      <path
         id="path434"
         d="M 23.5,0 C 23.5,12.97869 12.97869,23.5 0,23.5 -12.97869,23.5 -23.5,12.97869 -23.5,0 c 0,-12.97869 10.52131,-23.5 23.5,-23.5 12.97869,0 23.5,10.52131 23.5,23.5"
         style="fill:none;stroke:#000000;stroke-width:6;stroke-linecap:round;stroke-linejoin:round;stroke-miterlimit:10;stroke-dasharray:none;stroke-opacity:1"
         transform="matrix(0.16,0,0,-0.16,183.54667,359.54667)"
         clip-path="url(#clipPath435)" />
      <path
         id="path436"
         d="m 2572,5479 -38,18 v 38"
         style="fill:none;stroke:#000000;stroke-width:6;stroke-linecap:round;stroke-linejoin:round;stroke-miterlimit:10;stroke-dasharray:none;stroke-opacity:1"
         transform="matrix(0,-0.16,-0.16,0,1058.6667,774.66667)" />
      <path
         id="path437"
         d="m 2572,5459 -38,-18 v -38"
         style="fill:none;stroke:#000000;stroke-width:6;stroke-linecap:round;stroke-linejoin:round;stroke-miterlimit:10;stroke-dasharray:none;stroke-opacity:1"
         transform="matrix(0,-0.16,-0.16,0,1058.6667,774.66667)" />
    </g>
  </g>
</svg>
