<?xml version="1.0" encoding="UTF-8" standalone="no"?>
<!-- Created with Inkscape (http://www.inkscape.org/) -->

<svg
   version="1.1"
   id="svg1"
   width="84.32"
   height="13.44"
   viewBox="0 0 84.319996 13.44"
   xmlns="http://www.w3.org/2000/svg"
   >
  <defs
     id="defs1">
    <clipPath
       clipPathUnits="userSpaceOnUse"
       id="clipPath41">
      <path
         d="M 1372,0 H 3352 V 6212 H 1372 V 0"
         transform="translate(2.0833334e-5,2.0833333e-4)"
         id="path41" />
    </clipPath>
    <clipPath
       clipPathUnits="userSpaceOnUse"
       id="clipPath43">
      <path
         d="M 1372,0 H 3352 V 6212 H 1372 V 0"
         transform="translate(2.0833334e-5,2.0833333e-4)"
         id="path43" />
    </clipPath>
    <clipPath
       clipPathUnits="userSpaceOnUse"
       id="clipPath45">
      <path
         d="M 1372,0 H 3352 V 6212 H 1372 V 0"
         transform="translate(2.0833334e-5,2.0833333e-4)"
         id="path45" />
    </clipPath>
    <clipPath
       clipPathUnits="userSpaceOnUse"
       id="clipPath47">
      <path
         d="M 1372,0 H 3352 V 6212 H 1372 V 0"
         transform="translate(2.0833334e-5,2.0833333e-4)"
         id="path47" />
    </clipPath>
    <clipPath
       clipPathUnits="userSpaceOnUse"
       id="clipPath49">
      <path
         d="M 1372,0 H 3352 V 6212 H 1372 V 0"
         transform="translate(2.0833334e-5,2.0833333e-4)"
         id="path49" />
    </clipPath>
    <clipPath
       clipPathUnits="userSpaceOnUse"
       id="clipPath52">
      <path
         d="M 1372,0 H 3352 V 6212 H 1372 V 0"
         transform="translate(2.0833334e-5,2.0833333e-4)"
         id="path52" />
    </clipPath>
    <clipPath
       clipPathUnits="userSpaceOnUse"
       id="clipPath54">
      <path
         d="M 1372,0 H 3352 V 6212 H 1372 V 0"
         transform="translate(2.0833334e-5,2.0833333e-4)"
         id="path54" />
    </clipPath>
    <clipPath
       clipPathUnits="userSpaceOnUse"
       id="clipPath63">
      <path
         d="M 1372,0 H 3352 V 6212 H 1372 V 0"
         transform="rotate(90,3270.5,1564)"
         id="path63" />
    </clipPath>
    <clipPath
       clipPathUnits="userSpaceOnUse"
       id="clipPath68">
      <path
         d="M 1372,0 H 3352 V 6212 H 1372 V 0"
         transform="rotate(90,3270.5,1564)"
         id="path68" />
    </clipPath>
    <clipPath
       clipPathUnits="userSpaceOnUse"
       id="clipPath70">
      <path
         d="M 1372,0 H 3352 V 6212 H 1372 V 0"
         transform="rotate(90,3272.5,1582)"
         id="path70" />
    </clipPath>
  </defs>
  <g
     id="layer-oc1"
     transform="translate(-212.4267,-490.18667)">
    <g
       id="g320">
      <path
         id="path40"
         d="m 1775,4765 v 521 l -8,-521 z m 0,521 -8,-521 v 521 z"
         style="fill:#939598;fill-opacity:1;fill-rule:nonzero;stroke:#939598;stroke-width:1;stroke-linecap:round;stroke-linejoin:miter;stroke-miterlimit:10;stroke-dasharray:none;stroke-opacity:1"
         transform="matrix(0,-0.16,-0.16,0,1058.6667,774.66667)"
         clip-path="url(#clipPath41)" />
      <path
         id="path42"
         d="m 1767,4772 v 506 l -25,-506 z m 0,506 -25,-506 v 506 z"
         style="fill:#939598;fill-opacity:1;fill-rule:nonzero;stroke:#939598;stroke-width:1;stroke-linecap:round;stroke-linejoin:miter;stroke-miterlimit:10;stroke-dasharray:none;stroke-opacity:1"
         transform="matrix(0,-0.16,-0.16,0,1058.6667,774.66667)"
         clip-path="url(#clipPath43)" />
      <path
         id="path44"
         d="m 1742,4772 v 26 l -13,-26 z m 0,26 -13,-26 v 26 z"
         style="fill:#939598;fill-opacity:1;fill-rule:nonzero;stroke:#939598;stroke-width:1;stroke-linecap:round;stroke-linejoin:miter;stroke-miterlimit:10;stroke-dasharray:none;stroke-opacity:1"
         transform="matrix(0,-0.16,-0.16,0,1058.6667,774.66667)"
         clip-path="url(#clipPath45)" />
      <path
         id="path46"
         d="m 1729,4772 v 26 l -12,-26 z m 0,26 -12,-26 v 26 z"
         style="fill:#939598;fill-opacity:1;fill-rule:nonzero;stroke:#939598;stroke-width:1;stroke-linecap:round;stroke-linejoin:miter;stroke-miterlimit:10;stroke-dasharray:none;stroke-opacity:1"
         transform="matrix(0,-0.16,-0.16,0,1058.6667,774.66667)"
         clip-path="url(#clipPath47)" />
      <path
         id="path48"
         d="m 1742,5253 v 25 l -25,-25 z m 0,25 -25,-25 v 25 z"
         style="fill:#939598;fill-opacity:1;fill-rule:nonzero;stroke:#939598;stroke-width:1;stroke-linecap:round;stroke-linejoin:miter;stroke-miterlimit:10;stroke-dasharray:none;stroke-opacity:1"
         transform="matrix(0,-0.16,-0.16,0,1058.6667,774.66667)"
         clip-path="url(#clipPath49)" />
      <path
         id="path50"
         d="m 1717,5278 h 50 v 8 h 8 v -521 h -8 v 7 h -50"
         style="fill:none;stroke:#000000;stroke-width:6;stroke-linecap:round;stroke-linejoin:round;stroke-miterlimit:10;stroke-dasharray:none;stroke-opacity:1"
         transform="matrix(0,-0.16,-0.16,0,1058.6667,774.66667)" />
      <path
         id="path51"
         d="m 1742,4798 v 455 l -13,-455 z m 0,455 -13,-455 v 455 z"
         style="fill:#939598;fill-opacity:1;fill-rule:nonzero;stroke:#939598;stroke-width:1;stroke-linecap:round;stroke-linejoin:miter;stroke-miterlimit:10;stroke-dasharray:none;stroke-opacity:1"
         transform="matrix(0,-0.16,-0.16,0,1058.6667,774.66667)"
         clip-path="url(#clipPath52)" />
      <path
         id="path53"
         d="m 1729,4798 v 455 l -12,-455 z m 0,455 -12,-455 v 455 z"
         style="fill:#939598;fill-opacity:1;fill-rule:nonzero;stroke:#939598;stroke-width:1;stroke-linecap:round;stroke-linejoin:miter;stroke-miterlimit:10;stroke-dasharray:none;stroke-opacity:1"
         transform="matrix(0,-0.16,-0.16,0,1058.6667,774.66667)"
         clip-path="url(#clipPath54)" />
      <path
         id="path55"
         d="m 1717,4772 v 506"
         style="fill:none;stroke:#000000;stroke-width:6;stroke-linecap:round;stroke-linejoin:round;stroke-miterlimit:10;stroke-dasharray:none;stroke-opacity:1"
         transform="matrix(0,-0.16,-0.16,0,1058.6667,774.66667)" />
      <path
         id="path56"
         d="m 1729,4798 v 455"
         style="fill:none;stroke:#000000;stroke-width:6;stroke-linecap:round;stroke-linejoin:round;stroke-miterlimit:10;stroke-dasharray:none;stroke-opacity:1"
         transform="matrix(0,-0.16,-0.16,0,1058.6667,774.66667)" />
      <path
         id="path57"
         d="m 1742,4772 v 506"
         style="fill:none;stroke:#000000;stroke-width:6;stroke-linecap:round;stroke-linejoin:round;stroke-miterlimit:10;stroke-dasharray:none;stroke-opacity:1"
         transform="matrix(0,-0.16,-0.16,0,1058.6667,774.66667)" />
      <path
         id="path58"
         d="m 1742,5253 h -25"
         style="fill:none;stroke:#000000;stroke-width:6;stroke-linecap:round;stroke-linejoin:round;stroke-miterlimit:10;stroke-dasharray:none;stroke-opacity:1"
         transform="matrix(0,-0.16,-0.16,0,1058.6667,774.66667)" />
      <path
         id="path59"
         d="m 1742,4798 h -25"
         style="fill:none;stroke:#000000;stroke-width:6;stroke-linecap:round;stroke-linejoin:round;stroke-miterlimit:10;stroke-dasharray:none;stroke-opacity:1"
         transform="matrix(0,-0.16,-0.16,0,1058.6667,774.66667)" />
      <path
         id="path60"
         d="m 1717,4810 v 34 h -4 v -34 h 4"
         style="fill:none;stroke:#000000;stroke-width:6;stroke-linecap:round;stroke-linejoin:round;stroke-miterlimit:10;stroke-dasharray:none;stroke-opacity:1"
         transform="matrix(0,-0.16,-0.16,0,1058.6667,774.66667)" />
      <path
         id="path61"
         d="m 1713,4830 h -7"
         style="fill:none;stroke:#000000;stroke-width:6;stroke-linecap:round;stroke-linejoin:round;stroke-miterlimit:10;stroke-dasharray:none;stroke-opacity:1"
         transform="matrix(0,-0.16,-0.16,0,1058.6667,774.66667)" />
      <path
         id="path62"
         d="m 0,-4.5 c 2.48528,0 4.5,2.01472 4.5,4.5"
         style="fill:none;stroke:#000000;stroke-width:6;stroke-linecap:round;stroke-linejoin:round;stroke-miterlimit:10;stroke-dasharray:none;stroke-opacity:1"
         transform="matrix(0.16,0,0,-0.16,285.14667,501.62667)"
         clip-path="url(#clipPath63)" />
      <path
         id="path64"
         d="m 1713,4825 h -7"
         style="fill:none;stroke:#000000;stroke-width:6;stroke-linecap:round;stroke-linejoin:round;stroke-miterlimit:10;stroke-dasharray:none;stroke-opacity:1"
         transform="matrix(0,-0.16,-0.16,0,1058.6667,774.66667)" />
      <path
         id="path65"
         d="m 1701,4834 v 23"
         style="fill:none;stroke:#000000;stroke-width:6;stroke-linecap:round;stroke-linejoin:round;stroke-miterlimit:10;stroke-dasharray:none;stroke-opacity:1"
         transform="matrix(0,-0.16,-0.16,0,1058.6667,774.66667)" />
      <path
         id="path66"
         d="m 1697,4834 v 29"
         style="fill:none;stroke:#000000;stroke-width:6;stroke-linecap:round;stroke-linejoin:round;stroke-miterlimit:10;stroke-dasharray:none;stroke-opacity:1"
         transform="matrix(0,-0.16,-0.16,0,1058.6667,774.66667)" />
      <path
         id="path67"
         d="m 0,-8.5 c 4.69442,0 8.5,3.80558 8.5,8.5"
         style="fill:none;stroke:#000000;stroke-width:6;stroke-linecap:round;stroke-linejoin:round;stroke-miterlimit:10;stroke-dasharray:none;stroke-opacity:1"
         transform="matrix(0.16,0,0,-0.16,285.14667,501.62667)"
         clip-path="url(#clipPath68)" />
      <path
         id="path69"
         d="M -2.50891,11.22299 C -5.09654,10.64452 -7.40478,9.18965 -9.04287,7.10468"
         style="fill:none;stroke:#000000;stroke-width:6;stroke-linecap:round;stroke-linejoin:round;stroke-miterlimit:10;stroke-dasharray:none;stroke-opacity:1"
         transform="matrix(0.16,0,0,-0.16,281.94667,504.18667)"
         clip-path="url(#clipPath70)" />
    </g>
  </g>
</svg>
